<?xml version="1.0" encoding="UTF-8" standalone="no"?>
<svg
   width="28.757042"
   height="23.123415"
   viewBox="0 0 81.478285 65.670499"
   version="1.1"
   xml:space="preserve"
   style="clip-rule:evenodd;fill-rule:evenodd;stroke-linejoin:round;stroke-miterlimit:2"
   id="svg20"
   sodipodi:docname="bpslogo_wt_sm.svg"
   inkscape:version="1.4.2 (ebf0e940, 2025-05-08)"
   xmlns:inkscape="http://www.inkscape.org/namespaces/inkscape"
   xmlns:sodipodi="http://sodipodi.sourceforge.net/DTD/sodipodi-0.dtd"
   xmlns="http://www.w3.org/2000/svg"
   xmlns:svg="http://www.w3.org/2000/svg"><defs
     id="defs20" /><sodipodi:namedview
     id="namedview20"
     pagecolor="#ffffff"
     bordercolor="#000000"
     borderopacity="0.25"
     inkscape:showpageshadow="2"
     inkscape:pageopacity="0.0"
     inkscape:pagecheckerboard="0"
     inkscape:deskcolor="#d1d1d1"
     inkscape:zoom="2.5409997"
     inkscape:cx="13.183787"
     inkscape:cy="91.696192"
     inkscape:window-width="1800"
     inkscape:window-height="1097"
     inkscape:window-x="809"
     inkscape:window-y="1934"
     inkscape:window-maximized="0"
     inkscape:current-layer="svg20" /><path
     d="m 12.054793,20.939 c 0,0 12.322,10.139 14.909,12.267 -2.587,2.13 -14.909,12.273 -14.909,12.273 l 2.195,2.667 16.53,-13.606 v -2.668 l -16.53,-13.601 z"
     style="fill:#0077b2;fill-rule:nonzero"
     id="path1" /><path
     d="m -0.39320652,20.939 c 0,0 12.32499952,10.139 14.91399952,12.267 -2.589,2.13 -14.91399952,12.272 -14.91399952,12.272 L 1.8017935,48.146 18.336793,34.54 V 31.872 L 1.8017935,18.271 Z"
     style="fill:#0077b2;fill-rule:nonzero"
     id="path2" /><path
     d="m 65.300793,19.369 -15.195,12.503 v 2.668 l 16.529,13.6 2.195,-2.668 c 0,0 -12.32,-10.137 -14.908,-12.266 2.587,-2.129 14.908,-12.267 14.908,-12.267 l -2.195,-2.668 z"
     style="fill:#0077b2;fill-rule:nonzero"
     id="path3" /><path
     d="m 77.746793,19.369 -15.199,12.503 0.001,2.668 16.533,13.6 2.195,-2.668 c 0,0 -12.324,-10.136 -14.912,-12.266 2.588,-2.129 14.912,-12.267 14.912,-12.267 l -2.195,-2.668 z"
     style="fill:#0077b2;fill-rule:nonzero"
     id="path4" /><path
     d="m 42.461793,65.138 c 0,0.71 -4.58,0.71 -4.58,0 V 0.531 c 0,-0.708 4.58,-0.708 4.58,0 z"
     style="fill:#666666;fill-rule:nonzero;fill-opacity:1"
     id="path18" /></svg>
